# xmcd
#
# Track frame offsets: 
#        150
#        21676
#        47323
#        65275
#        86609
#        112917
#        138304
#        163509
#        183880
#        200656
#
# Disc length: 2919 seconds
#
# Revision: 0
# Processed by: cddbd v1.5.2PL0 Copyright (c) Steve Scherf et al.
# Submitted via: ExactAudioCopy v1.0b3
#
DISCID=7f0b650a
DTITLE=Thien Trang, Tuan Vu, Anh Thoai - Duong Sang Nha Em
DYEAR=1992
DGENRE=
TTITLE0=Thien Trang - Khi minh xa nhau
TTITLE1=Tuan Vu - Tinh khuc buon
TTITLE2=Thien Trang - Thanh do oi gia biet
TTITLE3=Anh Thoai - Chuyen di ve sang
TTITLE4=Thien Trang - Hoa dao thuong nho
TTITLE5=Thien Trang - De tra loi mot cau hoi
TTITLE6=Tuan Vu - Tren bon vung chien thuat
TTITLE7=Thien Trang - Duong sang nha em
TTITLE8=Anh Thoai - Vung truoc mat
TTITLE9=Thien Trang - Cay dang tinh doi
EXTD=
EXTT0=
EXTT1=
EXTT2=
EXTT3=
EXTT4=
EXTT5=
EXTT6=
EXTT7=
EXTT8=
EXTT9=
PLAYORDER=
